<svg width="118" height="57" viewBox="0 0 118 61" fill="none" xmlns="http://www.w3.org/2000/svg">
<path d="M21 30.5C21 27.9804 22.0009 25.5641 23.7825 23.7825C25.5641 22.0009 27.9804 21 30.5 21C33.0196 21 35.4359 22.0009 37.2175 23.7825C38.9991 25.5641 40 27.9804 40 30.5C40 33.0196 38.9991 35.4359 37.2175 37.2175C35.4359 38.9991 33.0196 40 30.5 40C27.9804 40 25.5641 38.9991 23.7825 37.2175C22.0009 35.4359 21 33.0196 21 30.5V30.5Z" stroke="#F2913D" stroke-width="3.5"/>
<path d="M2 49.5C2 46.9804 3.00089 44.5641 4.78249 42.7825C6.56408 41.0009 8.98044 40 11.5 40H21V49.5C21 52.0196 19.9991 54.4359 18.2175 56.2175C16.4359 57.9991 14.0196 59 11.5 59C8.98044 59 6.56408 57.9991 4.78249 56.2175C3.00089 54.4359 2 52.0196 2 49.5Z" stroke="#F2913D" stroke-width="3.5"/>
<path d="M21 2V21H30.5C33.0196 21 35.4359 19.9991 37.2175 18.2175C38.9991 16.4359 40 14.0196 40 11.5C40 8.98044 38.9991 6.56408 37.2175 4.78249C35.4359 3.00089 33.0196 2 30.5 2L21 2Z" stroke="#F2913D" stroke-width="3.5"/>
<path d="M2 11.5C2 14.0196 3.00089 16.4359 4.78249 18.2175C6.56408 19.9991 8.98044 21 11.5 21H21V2H11.5C8.98044 2 6.56408 3.00089 4.78249 4.78249C3.00089 6.56408 2 8.98044 2 11.5Z" stroke="#F2913D" stroke-width="3.5"/>
<path d="M2 30.5C2 33.0196 3.00089 35.4359 4.78249 37.2175C6.56408 38.9991 8.98044 40 11.5 40H21V21H11.5C8.98044 21 6.56408 22.0009 4.78249 23.7825C3.00089 25.5641 2 27.9804 2 30.5Z" stroke="#F2913D" stroke-width="3.5"/>
<path d="M46 21V41.16L48.6 41.17V31.57H54.85V29.03H48.59V23.53H56.74V21H46ZM61.4 25.1C61.8509 25.1 62.2833 24.9209 62.6021 24.6021C62.9209 24.2833 63.1 23.8509 63.1 23.4C63.1 22.9491 62.9209 22.5167 62.6021 22.1979C62.2833 21.8791 61.8509 21.7 61.4 21.7C60.9491 21.7 60.5167 21.8791 60.1979 22.1979C59.8791 22.5167 59.7 22.9491 59.7 23.4C59.7 23.8509 59.8791 24.2833 60.1979 24.6021C60.5167 24.9209 60.9491 25.1 61.4 25.1V25.1ZM60.09 27.63V41.17H62.69V27.63H60.09V27.63Z" fill="#F2913D"/>
<path fill-rule="evenodd" clip-rule="evenodd" d="M72.3 27.24C68.86 27.24 66.46 30.15 66.46 33.61C66.46 37.07 68.86 39.98 72.3 39.98C73.88 39.98 75.18 39.38 76.13 38.38V40.18C76.1366 40.7178 76.0365 41.2516 75.8356 41.7506C75.6346 42.2495 75.3368 42.7036 74.9592 43.0867C74.5817 43.4699 74.132 43.7743 73.636 43.9826C73.1401 44.1908 72.6078 44.2987 72.07 44.3C71.24 44.3 70.42 43.98 69.77 43.52L68.47 45.77C69.4752 46.4198 70.6371 46.7862 71.8333 46.8306C73.0294 46.875 74.2153 46.5957 75.2659 46.0223C76.3166 45.4489 77.193 44.6025 77.8026 43.5724C78.4123 42.5424 78.7327 41.3669 78.73 40.17V27.64H76.13V28.85C75.18 27.85 73.88 27.25 72.3 27.25V27.24ZM69.05 33.61C69.05 31.46 70.69 29.77 72.59 29.77C74.49 29.77 76.12 31.47 76.12 33.61C76.12 35.76 74.48 37.44 72.59 37.44C70.69 37.44 69.05 35.76 69.05 33.61V33.61Z" fill="#F2913D"/>
<path d="M88.0699 29.77C87.3263 29.7831 86.6178 30.0884 86.0976 30.6199C85.5773 31.1514 85.2872 31.8663 85.2899 32.61V41.17H82.6899V27.63H85.2899V28.87C85.6789 28.3544 86.1842 27.9381 86.7646 27.6548C87.3451 27.3716 87.9842 27.2294 88.6299 27.24C90.4499 27.24 91.8499 28.14 92.6499 29.52C93.0962 28.8282 93.7071 28.2578 94.4278 27.8599C95.1486 27.462 95.9567 27.249 96.7799 27.24C99.7299 27.24 101.58 29.62 101.58 32.57V41.17H98.9999V32.6C99.0027 31.8563 98.7126 31.1414 98.1923 30.6099C97.6721 30.0784 96.9635 29.7731 96.2199 29.76C95.4763 29.7731 94.7678 30.0784 94.2476 30.6099C93.7273 31.1414 93.4372 31.8563 93.4399 32.6V41.16H90.8399V32.6C90.8427 31.858 90.554 31.1446 90.0359 30.6134C89.5178 30.0822 88.8118 29.7757 88.0699 29.76V29.77Z" fill="#F2913D"/>
<path fill-rule="evenodd" clip-rule="evenodd" d="M115.41 29.17C114.82 28.5544 114.11 28.0657 113.324 27.7338C112.538 27.402 111.693 27.2339 110.84 27.24C106.98 27.24 104.24 30.5 104.24 34.4C104.24 38.3 106.98 41.56 110.84 41.56C111.693 41.5643 112.537 41.3955 113.323 41.0637C114.108 40.732 114.819 40.2442 115.41 39.63V41.17H118V27.63H115.4V29.17H115.41ZM106.83 34.4C106.83 31.82 108.81 29.77 111.12 29.77C113.42 29.77 115.41 31.82 115.41 34.4C115.41 36.98 113.43 39.02 111.12 39.02C108.82 39.02 106.83 36.98 106.83 34.4V34.4Z" fill="#F2913D"/>
</svg>
