<svg width="73" height="60" viewBox="0 0 73 35" fill="none" xmlns="http://www.w3.org/2000/svg">
<path d="M15.65 35L0.55 -2.38419e-06H9.3L22.5 31H17.35L30.75 -2.38419e-06H38.8L23.65 35H15.65ZM41.7223 35V-2.38419e-06H56.8723C60.0056 -2.38419e-06 62.7056 0.516665 64.9723 1.55C67.2389 2.55 68.9889 4 70.2223 5.9C71.4556 7.8 72.0723 10.0667 72.0723 12.7C72.0723 15.3 71.4556 17.55 70.2223 19.45C68.9889 21.3167 67.2389 22.75 64.9723 23.75C62.7056 24.75 60.0056 25.25 56.8723 25.25H46.2223L49.8223 21.7V35H41.7223ZM63.9723 35L55.2223 22.3H63.8723L72.7223 35H63.9723ZM49.8223 22.6L46.2223 18.8H56.4223C58.9223 18.8 60.7889 18.2667 62.0223 17.2C63.2556 16.1 63.8723 14.6 63.8723 12.7C63.8723 10.7667 63.2556 9.26667 62.0223 8.2C60.7889 7.13333 58.9223 6.6 56.4223 6.6H46.2223L49.8223 2.75V22.6Z" fill="#0D0D0D"/>
</svg>
